# xmcd
#
# Track frame offsets: 
#        150
#        22007
#        34235
#        46017
#        66700
#        84970
#        96902
#        109160
#        127722
#        145622
#
# Disc length: 2155 seconds
#
# Revision: 1
# Processed by: cddbd v1.4PL0 Copyright (c) Steve Scherf et al.
# Submitted via: ExactAudioCopy v0.90b3
#
DISCID=7f08690a
DTITLE=Merle Haggard - Going Where The Lonely Go
DYEAR=1900
DGENRE=Country
TTITLE0=Going Where The Lonely Go
TTITLE1=Why Am I Drinkin'
TTITLE2=If I Left It Up To You
TTITLE3=I Won't Give Up My Train
TTITLE4=Someday You're Gonna Need Your Friends Again
TTITLE5=Shopping For Dresses
TTITLE6=You Take Me For Granted
TTITLE7=Half A Man
TTITLE8=For All I Know
TTITLE9=Nobody's Darlin' But Mine
EXTD=
EXTT0=
EXTT1=
EXTT2=
EXTT3=
EXTT4=
EXTT5=
EXTT6=
EXTT7=
EXTT8=
EXTT9=
PLAYORDER=
